<?xml version="1.0" encoding="UTF-8"?>
<svg version="1.1" xmlns="http://www.w3.org/2000/svg" width="1254" height="1254">
<path d="M0 0 C413.82 0 827.64 0 1254 0 C1254 413.82 1254 827.64 1254 1254 C840.18 1254 426.36 1254 0 1254 C0 840.18 0 426.36 0 0 Z " fill="#051D50" transform="translate(0,0)"/>
<path d="M0 0 C413.82 0 827.64 0 1254 0 C1254 413.82 1254 827.64 1254 1254 C840.18 1254 426.36 1254 0 1254 C0 840.18 0 426.36 0 0 Z M266.875 90.625 C265.87700882 90.81941681 265.87700882 90.81941681 264.8588562 91.01776123 C250.6429326 93.81048928 236.6720415 97.44816337 223.74438477 104.12060547 C221.69057282 105.15599114 219.59991631 105.96945931 217.4375 106.75 C185.7881251 119.27486678 157.11087352 143.67044299 136 170 C134.85144531 171.42505859 134.85144531 171.42505859 133.6796875 172.87890625 C123.08949546 186.52469133 114.30028099 201.36922804 107 217 C106.60425781 217.825 106.20851563 218.65 105.80078125 219.5 C102.71194554 226.14160723 100.35932922 233.07343196 98 240 C97.77634766 240.64420898 97.55269531 241.28841797 97.32226562 241.95214844 C94.35860534 250.55016001 92.35043938 258.73125775 91.45703125 267.79296875 C91 271 91 271 90.01171875 273.36328125 C87.24536639 280.57288682 87.85509967 289.02070627 87.86577892 296.63620567 C87.86342669 297.7849069 87.86107446 298.93360812 87.85865095 300.11711848 C87.85315284 303.29698295 87.85208625 306.47681268 87.85292836 309.65668063 C87.8527581 313.11974581 87.84684341 316.5828021 87.8416875 320.04586279 C87.83238156 326.91091866 87.82844284 333.77596808 87.82616853 340.64102946 C87.82320112 348.86623229 87.81450041 357.09142661 87.80575425 365.31662497 C87.78492823 385.19891374 87.77444197 405.08120399 87.76562465 424.96350113 C87.7614145 434.37634315 87.75619293 443.78918454 87.75094012 453.20202603 C87.7330493 485.44537375 87.7180559 517.68872165 87.71061993 549.93207359 C87.71014517 551.95570973 87.70966929 553.97934586 87.70919226 556.002982 C87.70895589 557.00649197 87.70871951 558.01000195 87.70847597 559.04392132 C87.70727482 564.1279137 87.70605935 569.21190607 87.70483398 574.29589844 C87.70459383 575.30482015 87.70435368 576.31374187 87.70410626 577.35323698 C87.69621997 610.03711149 87.67280231 642.72094965 87.64027804 675.4048083 C87.6059275 709.98729587 87.58626384 744.56976219 87.58297569 779.1522671 C87.58255817 782.95390424 87.58207862 786.75554137 87.58155251 790.5571785 C87.58142931 791.49319875 87.58130612 792.429219 87.5811792 793.3936035 C87.57885342 808.41482894 87.56322806 823.43601195 87.54271066 838.4572223 C87.52238581 853.57828463 87.51700666 868.69929636 87.52648129 883.82036982 C87.53167082 892.78637096 87.52594044 901.75220278 87.50394662 910.71817931 C87.49032609 916.72880184 87.49161344 922.73930929 87.50434858 928.74993326 C87.51117168 932.1607906 87.5098855 935.57106942 87.49478849 938.98193698 C87.43938794 952.33806442 87.87396453 965.38723732 89.7804842 978.62273598 C89.93553992 979.70708145 90.09059563 980.79142692 90.25035001 981.90863135 C91.24781598 988.13648539 92.81140297 993.81363661 95.11719916 999.6859469 C96.24110608 1002.63200242 96.89967314 1005.60819578 97.5625 1008.6875 C105.95494502 1041.16261336 127.00203958 1072.0183735 150 1096 C150.75603516 1096.79688232 150.75603516 1096.79688232 151.52734375 1097.60986328 C159.43804274 1105.91264492 167.79641296 1113.16955238 177 1120 C177.85247314 1120.64364502 177.85247314 1120.64364502 178.72216797 1121.30029297 C187.69967749 1128.06480157 197.06871492 1133.74801575 207 1139 C207.66290039 1139.35336426 208.32580078 1139.70672852 209.00878906 1140.07080078 C244.37619967 1158.79116687 281.77197697 1164.31868882 321.3494873 1164.26742554 C324.10186298 1164.27006729 326.85423087 1164.275692 329.60660219 1164.28115618 C335.5652627 1164.29139972 341.52389076 1164.29430988 347.4825592 1164.29224396 C356.3440889 1164.28917918 365.20558301 1164.29755045 374.06710576 1164.30799321 C390.81968245 1164.32728493 407.57224684 1164.33295962 424.32483333 1164.33410732 C437.26754745 1164.3350282 450.21025679 1164.3391542 463.15296936 1164.34550858 C466.88537232 1164.3473038 470.61777528 1164.34908343 474.35017824 1164.35085833 C475.27819906 1164.35130043 476.20621987 1164.35174252 477.16236253 1164.35219802 C503.2483754 1164.36449788 529.33438662 1164.37240001 555.42040253 1164.37151146 C556.40290921 1164.3714803 557.3854159 1164.37144914 558.39769552 1164.37141704 C563.37686853 1164.37125084 568.35604154 1164.37105276 573.33521456 1164.37084763 C574.324005 1164.37080774 575.31279545 1164.37076785 576.33154925 1164.37072675 C578.33112274 1164.37064587 580.33069624 1164.37056228 582.33026973 1164.37047596 C613.4291829 1164.3692509 644.52805244 1164.38425902 675.62695312 1164.41162109 C710.60855722 1164.44238703 745.59013265 1164.45955088 780.57175112 1164.45769465 C784.30666892 1164.4575454 788.04158671 1164.45744798 791.77650452 1164.45738602 C793.15583629 1164.45735105 793.15583629 1164.45735105 794.56303335 1164.45731538 C809.31709684 1164.45725401 824.07112222 1164.46998824 838.8251744 1164.48725055 C853.67067401 1164.50425981 868.51611828 1164.50613961 883.36162227 1164.4930319 C892.16346537 1164.48567803 900.96513961 1164.48919321 909.76696458 1164.50891658 C915.66657429 1164.52101145 921.56606311 1164.51822137 927.46566752 1164.50397559 C930.81377867 1164.49629154 934.16130493 1164.49670731 937.50943226 1164.51089029 C971.51551788 1164.64527763 1005.48530132 1159.1786226 1036.13916016 1143.92089844 C1038.0357175 1142.98232401 1039.94388669 1142.07159581 1041.85546875 1141.1640625 C1062.91164213 1131.05636816 1081.17336213 1118.12913264 1098 1102 C1098.79470703 1101.24614014 1098.79470703 1101.24614014 1099.60546875 1100.47705078 C1107.90974466 1092.56481165 1115.168272 1084.20531228 1122 1075 C1122.42909668 1074.43168457 1122.85819336 1073.86336914 1123.30029297 1073.27783203 C1129.60121091 1064.91557631 1134.95496717 1056.23322997 1139.91210938 1047.015625 C1141.00462054 1044.99143914 1142.11747375 1042.97956346 1143.234375 1040.96875 C1146.43413789 1035.16028155 1149.49635726 1029.48342225 1151.36328125 1023.0859375 C1152.07564888 1020.75216868 1152.9882996 1018.56003199 1153.9375 1016.3125 C1156.49481972 1010.03187955 1158.24054746 1003.54074508 1160 997 C1160.19464844 996.29230469 1160.38929687 995.58460938 1160.58984375 994.85546875 C1166.28038045 973.26905269 1167.29566253 952.16763983 1167.26069641 929.97163391 C1167.2626165 927.24201977 1167.26753128 924.51241276 1167.27228898 921.78280228 C1167.28100588 915.87088016 1167.28237926 909.95899268 1167.27878571 904.04706573 C1167.27345584 895.25523769 1167.27959688 886.46344291 1167.28786864 877.67161848 C1167.30307635 861.05204618 1167.30481702 844.43248917 1167.30234561 827.81291137 C1167.30051002 814.97502099 1167.30227813 802.13713559 1167.30657005 789.29924583 C1167.30717247 787.45214088 1167.30777366 785.60503592 1167.30837366 783.75793096 C1167.30928095 780.97420991 1167.31018962 778.19048887 1167.31110601 775.40676783 C1167.31953075 749.5383079 1167.32387455 723.66984985 1167.31969929 697.80138874 C1167.31954291 696.82701233 1167.31938654 695.85263591 1167.31922542 694.84873294 C1167.31841969 689.91067654 1167.31757392 684.97262015 1167.31671212 680.03456376 C1167.31654103 679.05392382 1167.31636994 678.07328388 1167.31619367 677.06292757 C1167.31584701 675.07983721 1167.31549848 673.09674685 1167.31514808 671.11365649 C1167.30979203 640.26334107 1167.31771997 609.41305423 1167.33618164 578.56274414 C1167.35691985 543.86794821 1167.36762087 509.17316998 1167.36360615 474.47836751 C1167.36321084 470.77552267 1167.36284928 467.07267783 1167.36250877 463.36983299 C1167.36241804 462.45816119 1167.36232731 461.54648938 1167.36223383 460.60719116 C1167.36107021 446.8735042 1167.36769824 433.1398352 1167.37832069 419.40615273 C1167.39039664 403.77772361 1167.39190414 388.14933389 1167.37953053 372.52090416 C1167.37292423 363.78712877 1167.37448121 355.05344773 1167.38811904 346.31967997 C1167.39641109 340.47051032 1167.39360483 334.62141075 1167.38214377 328.7722467 C1167.37593395 325.44971967 1167.3758583 322.12752364 1167.38600711 318.80498485 C1167.43014187 303.26798732 1166.56878998 288.33031194 1164 273 C1163.80269187 271.75893897 1163.60538374 270.51787794 1163.40209657 269.239209 C1162.96850345 266.54790646 1162.49463365 263.86816285 1162 261.1875 C1161.84789062 260.31287109 1161.69578125 259.43824219 1161.5390625 258.53710938 C1160.49870921 252.81943 1158.96673601 247.4639432 1157 242 C1156.40058594 240.25783203 1156.40058594 240.25783203 1155.7890625 238.48046875 C1145.6541449 209.81021527 1131.06343112 183.79453746 1110.2890625 161.4765625 C1108.35416784 159.38317817 1106.51423094 157.24917793 1104.6875 155.0625 C1083.65354523 130.97443471 1052.85999329 111.76853127 1023 101 C1022.40106934 100.77683105 1021.80213867 100.55366211 1021.18505859 100.32373047 C1011.6667616 96.80614985 1001.9923458 94.10521983 992.125 91.75 C991.1232373 91.50386963 990.12147461 91.25773926 989.08935547 91.00415039 C970.14898744 86.65695928 950.89122101 86.71177109 931.56376648 86.75276184 C928.82657532 86.75228291 926.08938977 86.74878694 923.35220081 86.74544543 C917.43320101 86.73980068 911.51423977 86.74147057 905.59524155 86.7481308 C896.79332089 86.75800736 887.99142807 86.75630101 879.1895041 86.7523805 C864.37438909 86.74612442 849.55929006 86.74925516 834.74417686 86.75797462 C820.07679788 86.76660506 805.40942608 86.7714944 790.74204445 86.77130699 C789.82783454 86.77129935 788.91362464 86.7712917 787.97171141 86.77128382 C784.2602672 86.77124291 780.548823 86.7711773 776.83737879 86.77107801 C742.05911918 86.77017301 707.28087049 86.78010083 672.50261466 86.79550768 C641.62503254 86.80913611 610.74745816 86.81536866 579.86987305 86.81469727 C577.88638259 86.81465685 575.90289213 86.81461649 573.91940167 86.81457619 C572.44847739 86.81454566 572.44847739 86.81454566 570.94783746 86.81451452 C566.01121592 86.81441372 561.07459438 86.81432314 556.13797283 86.81424427 C555.16398323 86.81422756 554.18999362 86.81421084 553.18648918 86.81419362 C527.35690454 86.81382825 501.52732087 86.81836915 475.69773704 86.82457083 C474.31912478 86.82490124 474.31912478 86.82490124 472.91266176 86.82523832 C469.21715335 86.82612651 465.52164493 86.82701492 461.82613653 86.82792928 C448.98574194 86.83108512 436.14534813 86.832598 423.30495318 86.83304077 C406.75925073 86.83363852 390.21355466 86.83764606 373.66785493 86.84747223 C364.92373649 86.852576 356.17962741 86.85500034 347.43550756 86.85347604 C341.58848488 86.85273909 335.74147127 86.85566404 329.8944515 86.86151985 C326.56754561 86.86475465 323.2406754 86.86592266 319.91376623 86.86375926 C301.90969872 86.85334993 284.58299495 87.13081408 266.875 90.625 Z " fill="#FDFDFD" transform="translate(0,0)"/>
<path d="M0 0 C-0.47382309 11.8878347 -1.24438534 23.74261838 -2.19140625 35.6015625 C-2.27351412 36.63177143 -2.27351412 36.63177143 -2.35728073 37.68279266 C-2.8132925 43.39265712 -3.27568711 49.1020013 -3.74047852 54.81115723 C-4.08993275 59.10393919 -4.43622647 63.39695126 -4.77802849 67.69034958 C-4.93669871 69.66789137 -5.09994009 71.64506472 -5.26332092 73.6222229 C-7.12316592 85.79723773 -7.12316592 85.79723773 -3.87890625 96.83203125 C-2.92886719 97.54746094 -1.97882813 98.26289063 -1 99 C-0.03964844 99.76699219 0.92070313 100.53398437 1.91015625 101.32421875 C2.95042969 102.10410156 3.99070312 102.88398438 5.0625 103.6875 C9.57619568 107.10103485 13.98564275 110.60264118 18.3125 114.25 C19.28960938 115.0646875 20.26671875 115.879375 21.2734375 116.71875 C22.97665058 118.14378788 24.67098406 119.57958756 26.3515625 121.03125 C27.03992188 121.5984375 27.72828125 122.165625 28.4375 122.75 C29.01371094 123.23984375 29.58992188 123.7296875 30.18359375 124.234375 C32.05131559 125.25726613 32.05131559 125.25726613 34.24023438 124.24975586 C37.24214812 122.89034357 40.0941034 121.37418862 42.97265625 119.76953125 C44.12056641 119.13080078 45.26847656 118.49207031 46.45117188 117.83398438 C47.04599365 117.50100342 47.64081543 117.16802246 48.25366211 116.82495117 C50.61558227 115.50292622 52.98148881 114.18813457 55.34848022 112.87521362 C56.51643419 112.22039567 57.67926961 111.55636496 58.83682251 110.8833313 C61.6720013 109.24131713 64.43828516 107.82139834 67.47607422 106.58349609 C70.9566565 105.04355802 73.33578562 103.72737281 76 101 C77.65272048 95.9963409 77.79534114 91.19010041 77.91113281 85.94934082 C78.04662337 81.45265473 78.40295284 76.97504861 78.72802734 72.4887085 C79.24250023 65.28343255 79.67704784 58.07282677 80.125 50.86315918 C82.03911962 20.0820969 82.03911962 20.0820969 84 7 C104.67309024 14.94356708 119.89223328 35.52096135 129 55 C139.89852473 80.94886841 139.90864215 108.49559639 129.5625 134.5625 C128.73452428 136.38711315 127.88118143 138.20047889 127 140 C126.35804688 141.34191406 126.35804688 141.34191406 125.703125 142.7109375 C118.3984389 157.03304677 107.66043325 169.10887015 94.6875 178.5 C94.0884082 178.93401123 93.48931641 179.36802246 92.87207031 179.81518555 C89.82459858 181.95073095 87.66659312 183.08335172 84 184 C84 317.98 84 451.96 84 590 C49.35 590 14.7 590 -21 590 C-21 532.58 -21 475.16 -21 416 C-65.55 416 -110.1 416 -156 416 C-156 473.09 -156 530.18 -156 589 C-189.99 589 -223.98 589 -259 589 C-259 447.1 -259 305.2 -259 159 C-224.68 159 -190.36 159 -155 159 C-155 214.44 -155 269.88 -155 327 C-110.78 327 -66.56 327 -21 327 C-21 278.49 -21 229.98 -21 180 C-22.65 179.34 -24.3 178.68 -26 178 C-48.06932534 161.7910525 -61.75727268 137.72341898 -66.5546875 110.8984375 C-69.89667146 81.64142006 -62.94431327 53.557202 -44.63867188 30.26806641 C-34.94842639 18.58945973 -16.19672677 0 0 0 Z " fill="#FBB108" transform="translate(900,299)"/>
<path d="M0 0 C259.27089337 0 259.27089337 0 309 48 C309.87527344 48.81210937 310.75054688 49.62421875 311.65234375 50.4609375 C322.03954596 60.35198675 329.28229464 72.45075466 336 85 C336.52335937 85.96679688 337.04671875 86.93359375 337.5859375 87.9296875 C356.50823339 125.67416132 357.23889394 174.8735549 344.25 214.5 C337.63880323 233.56295056 329.03874939 251.03826586 315.06640625 265.8125 C313.19610264 267.79240552 311.4766407 269.83328923 309.75 271.9375 C287.9598466 296.71260592 253.1635877 312.309925 221 317 C219.25388881 317.26811559 217.5077961 317.53635162 215.76171875 317.8046875 C179.37220858 323.26134864 144.98967008 321 107 321 C107 378.42 107 435.84 107 495 C71.69 495 36.38 495 0 495 C0 331.65 0 168.3 0 0 Z " fill="#FCFCFC" transform="translate(263,394)"/>
<path d="M0 0 C12.973125 -0.061875 25.94625 -0.12375 39.3125 -0.1875 C43.36829346 -0.21481201 47.42408691 -0.24212402 51.6027832 -0.27026367 C56.65856934 -0.28381348 56.65856934 -0.28381348 59.04533386 -0.28633118 C60.66869088 -0.2908577 62.29203957 -0.30123552 63.91532898 -0.31672668 C73.12004068 -0.3999699 82.07319345 -0.07987451 91.18432617 1.31518555 C92.32207096 1.48689254 92.32207096 1.48689254 93.48280048 1.66206837 C105.23981903 3.65777285 116.24781285 8.87417827 125 17 C125.77988281 17.70125 126.55976563 18.4025 127.36328125 19.125 C140.00893654 31.04627242 144.78814223 47.10418371 145.4597168 64.12817383 C145.77589041 83.72518936 140.99388573 103.33788389 127.31005859 117.83837891 C112.24462975 133.06607424 91.4044635 139.08227603 70.38574219 139.22705078 C67.10593179 139.23376681 63.826608 139.21626036 60.546875 139.1953125 C58.9903986 139.19236424 57.4339202 139.19032864 55.87744141 139.18920898 C50.16826362 139.17881231 44.45912855 139.15089018 38.75 139.125 C19.56875 139.063125 19.56875 139.063125 0 139 C0 93.13 0 47.26 0 0 Z " fill="#051D50" transform="translate(370,487)"/>
<path d="M0 0 C0.33 0 0.66 0 1 0 C1 141.9 1 283.8 1 430 C34.99 430 68.98 430 104 430 C104 372.91 104 315.82 104 257 C148.55 257 193.1 257 239 257 C239 314.42 239 371.84 239 431 C273.98 431 308.96 431 345 431 C344.67 431.66 344.34 432.32 344 433 C309.02 433 274.04 433 238 433 C236.3135274 429.6270548 236.75392115 425.79867236 236.68359375 422.08422852 C236.66276733 421.14999746 236.64194092 420.21576641 236.6204834 419.25322533 C236.55325118 416.10771186 236.49468919 412.96211761 236.4375 409.81640625 C236.40573166 408.17220294 236.40573166 408.17220294 236.37332153 406.4947834 C235.82641285 377.65678721 235.92098793 348.81803396 235.99479675 319.97631073 C236.02079967 309.78747422 236.04306192 299.59865469 236.05593872 289.40979195 C236.06239884 285.64873648 236.07487009 281.88773226 236.08764648 278.12669373 C236.09127174 275.86302738 236.09462435 273.59936058 236.09765625 271.33569336 C236.10540573 269.77578171 236.10540573 269.77578171 236.11331177 268.18435669 C236.11338226 267.24554153 236.11345276 266.30672638 236.11352539 265.33946228 C236.115746 264.52040374 236.11796661 263.7013452 236.12025452 262.8574667 C236.20413508 260.98415299 236.20413508 260.98415299 235 260 C233.32975331 259.90385867 231.65541724 259.87812278 229.98240662 259.87974548 C228.89787673 259.87836799 227.81334684 259.87699049 226.69595242 259.87557125 C225.49103177 259.87916936 224.28611113 259.88276747 223.04467773 259.88647461 C221.12648901 259.88629381 221.12648901 259.88629381 219.16954899 259.88610935 C215.6992129 259.88588288 212.22891105 259.8916937 208.75858307 259.89871979 C205.50641471 259.90439969 202.25424792 259.90468209 199.0020752 259.90539551 C189.48054557 259.91065029 179.95902236 259.92461135 170.4375 259.9375 C149.173125 259.958125 127.90875 259.97875 106 260 C105.67 316.43 105.34 372.86 105 431 C70.35 431 35.7 431 0 431 C0 288.77 0 146.54 0 0 Z " fill="#343844" transform="translate(640,458)"/>
<path d="M0 0 C34.32 0 68.64 0 104 0 C104 55.44 104 110.88 104 168 C103.67 168 103.34 168 103 168 C102.67 113.22 102.34 58.44 102 2 C68.34 2 34.68 2 0 2 C0 1.34 0 0.68 0 0 Z " fill="#C49217" transform="translate(641,458)"/>
<path d="M0 0 C0.33 0 0.66 0 1 0 C1.8027463 9.27497416 2.27257557 18.29139849 1.1875 27.5625 C1.10516113 28.2939624 1.02282227 29.0254248 0.93798828 29.77905273 C0.7056751 31.53190399 0.36308621 33.26950142 0 35 C-0.99 35.495 -0.99 35.495 -2 36 C-1.42181583 23.99345223 -0.78736811 11.99479933 0 0 Z " fill="#292C4A" transform="translate(898,319)"/>
<path d="M0 0 C0.33 0 0.66 0 1 0 C2.11165232 4.4378561 2.11527763 8.76956386 2.0625 13.3125 C2.05798828 14.05306641 2.05347656 14.79363281 2.04882812 15.55664062 C2.03712175 17.37112899 2.01918898 19.18557534 2 21 C1.01 21 0.02 21 -1 21 C-1.10808032 13.90272572 -0.93854006 7.03905044 0 0 Z " fill="#D7A113" transform="translate(983,313)"/>
<path d="M0 0 C0.33 0 0.66 0 1 0 C1.79733605 4.22907041 2.16210046 8.25981808 2.1875 12.5625 C2.20167969 13.65691406 2.21585938 14.75132812 2.23046875 15.87890625 C2.00004469 18.99939486 1.32548938 21.1866095 0 24 C-0.33 24 -0.66 24 -1 24 C-1.14525497 15.94641862 -0.71413279 8.02124152 0 0 Z " fill="#E7AD0C" transform="translate(979,369)"/>
<path d="M0 0 C0 0.66 0 1.32 0 2 C-0.66 2 -1.32 2 -2 2 C-2.25523437 2.58265625 -2.51046875 3.1653125 -2.7734375 3.765625 C-4.11741087 6.21388223 -5.61810296 7.81743248 -7.625 9.75 C-8.57246094 10.67039063 -8.57246094 10.67039063 -9.5390625 11.609375 C-10.02117187 12.06828125 -10.50328125 12.5271875 -11 13 C-11.66 12.01 -12.32 11.02 -13 10 C-11.40517782 8.32438946 -9.79883156 6.65974066 -8.1875 5 C-7.29417969 4.071875 -6.40085938 3.14375 -5.48046875 2.1875 C-3 0 -3 0 0 0 Z " fill="#24305F" transform="translate(160,147)"/>
<path d="M0 0 C0 0.33 0 0.66 0 1 C-1.65 1 -3.3 1 -5 1 C-5 1.66 -5 2.32 -5 3 C-9.95 2.67 -14.9 2.34 -20 2 C-20 1.67 -20 1.34 -20 1 C-13.31184516 0.37577221 -6.71884955 -0.12920865 0 0 Z " fill="#595F82" transform="translate(471,713)"/>
<path d="M0 0 C0.66 0 1.32 0 2 0 C1.49287967 3.71888239 0.88391785 6.73454239 -1 10 C-1.99 9.67 -2.98 9.34 -4 9 C-2.68 6.03 -1.36 3.06 0 0 Z " fill="#152151" transform="translate(600,624)"/>
<path d="M0 0 C6.11090483 -0.09945415 11.97403427 -0.0712828 18 1 C18 1.33 18 1.66 18 2 C16.02 2 14.04 2 12 2 C12 2.66 12 3.32 12 4 C11.01 3.67 10.02 3.34 9 3 C9 2.67 9 2.34 9 2 C6.03 1.67 3.06 1.34 0 1 C0 0.67 0 0.34 0 0 Z " fill="#343E6A" transform="translate(440,487)"/>
<path d="M0 0 C0.66 0.33 1.32 0.66 2 1 C1.34 6.28 0.68 11.56 0 17 C-0.33 17 -0.66 17 -1 17 C-1.93213141 10.73960391 -2.20927172 5.97802937 0 0 Z " fill="#2B3148" transform="translate(983,305)"/>
<path d="M0 0 C0.99 0 1.98 0 3 0 C3.268125 0.598125 3.53625 1.19625 3.8125 1.8125 C4.98493467 3.97224808 6.19369282 5.35790256 8 7 C7.34 7.66 6.68 8.32 6 9 C4.99406757 7.8803014 3.9954151 6.7540588 3 5.625 C2.443125 4.99851562 1.88625 4.37203125 1.3125 3.7265625 C0 2 0 2 0 0 Z " fill="#1C2452" transform="translate(137,1080)"/>
<path d="M0 0 C0.99 0.33 1.98 0.66 3 1 C4.30480865 4.26202163 5.21066812 7.57956185 6 11 C3.34730103 8.52414762 1.31989897 6.40973899 0 3 C0 2.01 0 1.02 0 0 Z " fill="#0B1544" transform="translate(117,1049)"/>
<path d="M0 0 C0.99 0 1.98 0 3 0 C3 0.66 3 1.32 3 2 C2.34 2 1.68 2 1 2 C0.34 3.32 -0.32 4.64 -1 6 C-1.99 6 -2.98 6 -4 6 C-2.84826645 3.53199953 -1.95216435 1.95216435 0 0 Z " fill="#1E2650" transform="translate(157,147)"/>
<path d="M0 0 C0.33 0 0.66 0 1 0 C1 1.98 1 3.96 1 6 C0.01 6.33 -0.98 6.66 -2 7 C-2 7.99 -2 8.98 -2 10 C-2.66 10 -3.32 10 -4 10 C-2.8905928 6.51329166 -1.73662334 3.22515763 0 0 Z " fill="#1C264C" transform="translate(1027,437)"/>
<path d="M0 0 C0.66 0.33 1.32 0.66 2 1 C1.3125 3.4375 1.3125 3.4375 0 6 C-2.625 6.8125 -2.625 6.8125 -5 7 C-3.35 4.69 -1.7 2.38 0 0 Z " fill="#1A2551" transform="translate(141,164)"/>
<path d="M0 0 C4.0084034 2.0042017 5.41409657 3.49055963 8 7 C7.01 7.33 6.02 7.66 5 8 C2.525 4.04 2.525 4.04 0 0 Z " fill="#1A2556" transform="translate(1107,160)"/>
<path d="M0 0 C-0.99 0 -1.98 0 -3 0 C-3 0.99 -3 1.98 -3 3 C-6.3 3 -9.6 3 -13 3 C-8.8341563 0.22277086 -4.9360889 -1.89849573 0 0 Z " fill="#474F74" transform="translate(248,97)"/>
<path d="M0 0 C0.99 0.33 1.98 0.66 3 1 C2.34 1.66 1.68 2.32 1 3 C0.01 3 -0.98 3 -2 3 C-2.33 3.99 -2.66 4.98 -3 6 C-3.99 5.34 -4.98 4.68 -6 4 C-3.1875 1.9375 -3.1875 1.9375 0 0 Z " fill="#192250" transform="translate(556,680)"/>
<path d="M0 0 C2 3 2 3 1.875 5.0625 C1 7 1 7 -3 9 C-2.01 6.03 -1.02 3.06 0 0 Z " fill="#252E5D" transform="translate(106,219)"/>
<path d="M0 0 C3.465 1.485 3.465 1.485 7 3 C7 3.99 7 4.98 7 6 C2.25 4.125 2.25 4.125 0 3 C0 2.01 0 1.02 0 0 Z " fill="#162256" transform="translate(1048,113)"/>
<path d="M0 0 C0.33 0 0.66 0 1 0 C1.144375 0.7425 1.28875 1.485 1.4375 2.25 C1.90187492 4.52027739 2.41863569 6.75759479 3 9 C2.01 9.33 1.02 9.66 0 10 C0 6.7 0 3.4 0 0 Z " fill="#DFA111" transform="translate(980,354)"/>
<path d="M0 0 C0.33 1.32 0.66 2.64 1 4 C-0.9375 6.25 -0.9375 6.25 -3 8 C-3.66 7.67 -4.32 7.34 -5 7 C-3.35 4.69 -1.7 2.38 0 0 Z " fill="#DFA10E" transform="translate(855,330)"/>
</svg>
